<?xml version="1.0" standalone="no"?><!DOCTYPE svg PUBLIC "-//W3C//DTD SVG 1.1//EN" "http://www.w3.org/Graphics/SVG/1.1/DTD/svg11.dtd"><svg t="1592972995124" class="icon" viewBox="0 0 1024 1024" version="1.1" xmlns="http://www.w3.org/2000/svg" p-id="8652" xmlns:xlink="http://www.w3.org/1999/xlink" width="200" height="200"><defs><style type="text/css"></style></defs><path d="M636.5 346h-249c-11.4 0-20.7 9.3-20.7 20.8s9.3 20.7 20.7 20.7h249c11.4 0 20.8-9.3 20.8-20.7s-9.4-20.8-20.8-20.8z" p-id="8653" fill="#ffc0cb"></path><path d="M802.5 346h-62.2v-20.7C740.2 199.4 637.9 97 512 97S283.8 199.4 283.8 325.3V346h-62.2c-75.8 0-134 67.1-123.2 142.1l52.5 367.6c5.8 40.9 40.9 71.3 82.2 71.3H791c41.3 0 76.3-30.4 82.2-71.3l52.5-367.6c10.7-75-47.5-142.1-123.2-142.1z m-11.4 539.5H232.9c-20.5 0-38.2-15.3-41.1-35.6l-6.8-47.4h653.8l-6.8 47.4c-2.8 20.3-20.4 35.6-40.9 35.6z m93.5-403.3L844 766.8V761H180v5.8l-40.6-284.5c-3.4-23.8 3.7-47.9 19.5-66.1 15.8-18.2 38.6-28.6 62.7-28.6h62.2v47.3c-12.4 7.2-20.7 20.4-20.7 35.7 0 22.9 18.6 41.5 41.5 41.5s41.5-18.6 41.5-41.5c0-15.3-8.4-28.6-20.7-35.7V325.3c0-103 83.8-186.7 186.7-186.7s186.7 83.8 186.7 186.7v109.5c-12.4 7.2-20.8 20.4-20.8 35.7 0 22.9 18.6 41.5 41.5 41.5s41.5-18.6 41.5-41.5c0-15.3-8.4-28.6-20.7-35.7v-47.3h62.2c24.1 0 46.9 10.4 62.7 28.6 15.8 18.2 22.9 42.3 19.4 66.1z" p-id="8654" fill="#ffc0cb"></path></svg>