<?xml version="1.0" standalone="no"?><!DOCTYPE svg PUBLIC "-//W3C//DTD SVG 1.1//EN" "http://www.w3.org/Graphics/SVG/1.1/DTD/svg11.dtd"><svg t="1592972226753" class="icon" viewBox="0 0 1024 1024" version="1.1" xmlns="http://www.w3.org/2000/svg" p-id="4833" xmlns:xlink="http://www.w3.org/1999/xlink" width="200" height="200"><defs><style type="text/css"></style></defs><path d="M676.352 417.28l-147.456 176.64-146.944-177.152H307.2v28.672a25.6 25.6 0 0 1 24.064 10.24v3.072c32.256 41.472 159.232 185.856 195.072 230.4 35.84-45.056 162.304-189.44 195.072-231.424a25.6 25.6 0 0 1 24.064-10.24V414.72H680.96s-3.072 0-4.608 2.56z m216.064-44.032a86.528 86.528 0 0 1 0 111.616L716.8 676.352l-130.048 140.288a71.168 71.168 0 0 1-56.32 28.672 71.68 71.68 0 0 1-56.32-28.672L347.136 680.96 166.4 485.376a83.968 83.968 0 0 1 0-110.08l83.456-92.672 69.12-75.264a73.216 73.216 0 0 1 57.344-28.16h307.2a75.776 75.776 0 0 1 55.296 27.648c28.672 28.672 90.624 97.28 128 137.728z" fill="#ffc0cb" p-id="4834"></path></svg>